<mxfile host="app.diagrams.net" modified="2021-08-30T13:02:46.167Z" agent="5.0 (Windows)" etag="NdI2oPHvpOYzYpvN8Hjl" version="15.0.3" type="github">
  <diagram id="C5RBs43oDa-KdzZeNtuy" name="Page-1">
    <mxGraphModel dx="1711" dy="694" grid="1" gridSize="10" guides="1" tooltips="1" connect="1" arrows="1" fold="1" page="1" pageScale="1" pageWidth="827" pageHeight="1169" math="0" shadow="0">
      <root>
        <mxCell id="WIyWlLk6GJQsqaUBKTNV-0" />
        <mxCell id="WIyWlLk6GJQsqaUBKTNV-1" parent="WIyWlLk6GJQsqaUBKTNV-0" />
        <mxCell id="ZJ-Ndo8Y_zPckxjQXqnF-16" value="" style="shape=image;verticalLabelPosition=bottom;labelBackgroundColor=#ffffff;verticalAlign=top;aspect=fixed;imageAspect=0;image=data:image/png,iVBORw0KGgoAAAANSUhEUgAABEcAAABLCAYAAACSq+nmAAAUIElEQVR4nO2dz8okt9WH65K8MIHuG/EFfFDXEK+z9KL7MmYbMAWBIeCdvRkGnBB/1MvgTbAn8eJlGHCyOln0P0mlv9XVKnWd5wEx71RXqyT9jqRTp1Tq7vX1VUgkEolEIpFIJBKJRCKRtKZu7QKQSCQSiUQikUgkEolEIq2ZupeXF/n/f/+36fTy8iKgF/SvC+3dNuijB81aa667BtAXtgK2vF3QVicER6B50L8utHfboI8eNGutue4aQF/YCtjydkFbnRAcgeZB/7rQ3m2DPnrQrLXmumsAfWErYMvbBW11QnAEmgf960J7tw366EGz1prrrgH0ha2ALW8XtNUJwRFoHvSvC+3dNuijB81aa667BtAXtgK2vF3QVidGcOTv8vWXnXRdJ92X38hfJkGKP8tX3R/k6x9aCY6Mctidy9t10u0OMlZvvmUZ+k66fli7GM0x0X/ob7p3vSzXYoP03U4OxYZ0+Z5hkxd7nJTVPWeQvvPpPrcs9/Oc/a318i1He/rUsOHzNYw0b6hcr1/Nod7Y1x5ldt6CrlMb3ZkFGg+ye1QZH5n3g7jp65k3q5DQ697ceztv6xpPqBeECd1AP41Pv4g9uv0pkt8T2T/aWpmp8bOdlSOxAEhDwZHxIDvXOR4PcnhmZ3k8yG7XS79roCwT1m0jS//xIDvzpmC27j7uDY44fwfLOj1/t3Nv9hoKjiza3+7F0y7Vy9dQfxBpoP41bNjJy+1bc/NpnLyxL7dOT1x3kYSdt1A3X794lAPdQn3vw9a3Rn3841a5XqVlfX6tII73BlqdT2/nOR52m7h5Rtszq/uZdXnC4MgpcrWcv9HGxDUedrI7jNd/26Khm8Ghf+CAu3BwJFhWz/nDQXbWua0ER5bub/fitssa5WuoPzRR/xo2nLqxmZtP2+SNfRqCIyk7b6FuocDtI1b4tFDf+2gvOCKZehEcARvfDbQ+n36pObot0FakDT+zLvHgyA/fyBfn5TNf/OmbNoIjyckr1kHtJUH94CwDuyh/jpBNl28bNwHGZ+NhF1lG6y6BPuXR9zvj2CiHSwRydG8wfOVOHE+V39s2578PvVOXQBtVZOpEuctfPR33eiNRotn03LCeoXZ1//Yt1fWfP/SesqwdHLmrv7m27rH9SB/JssUcZ3bL/aGJ+mfasFfr0HG/7dyy7o22T9lVrK+Gxv3YeF2P9Njnt0drSf9Vo7But7xCc2WFyjrMGocCY/e0PYzvTGzcvObl+CHDln1jtjk3xcbGUJ63POJ+S6yveew/VOeKhIMjsTLm+Dy+vuu83uK1/1v+l3zz+lHo+r66Rep7l18JazK9gX42nz63/0lkXCz3Bd2HXHn9ui5oKxnzb4161CUSHPmzfNV18tWb02d/+dMfpGslOBJdORARwnKoY+e7hus4085+ElfjGvqwozT0lugTg7zWyeh41//7HJjQ8VT5Y0ZqGGGsLpXxD05OB3S0HXrTIS3RzDjXo326XcODfl4wJZRPPRbrbxNb9/0/3EeybDGrfBvuD03Uf4Y9W1rnjJPOZGlN1P5z43V2A6oF43VFssa+qD3GxpTSubIuc+zcHud9zlyJjd/a+HSjWmjLp29GgiM5Y2Fsno/33agP461zXeLBkUAZc3y46BiSerIdekJa0I+u149dx1Pfu/xKWBPvK4BP5dMvPy7ar9XE+mLmGLeSraOtW2cf2/Ozw8GRH76RL6yNWRt5reaeJ9nnyFZ04vLkb99oZzqXThQt9rTCXZo1HnbOEwlPfQuO55W/5LO6BHeLtt6BG6Q3O1Vwo76yel7bLrtdA201KWvY0Q4/1arD0itHgm2f3UcieabKt/X+0ET9M2w4pPUsG5D45JtR553rqBSM1zXJH/ucMlobt84IjnjnyrosNw5JeXtMnMF5c7vtPKfGsVD/SAV5fOWb68PUI7lyJNcu544hSb0kz26C149dZ2bQMnktWAN3nH4+n76g/wVfnT3f6AYfYOSPV7d6r2/raBspf9V61OX5giPF7x77gxG3J2+PDI7kOjXOAGAOLE12trrEfkrLHJj87wHeExwxbO3e4IhV1pxrtuK03tPfcm5wCx3/mEY+Nt8fWqh/hg2XjmPZ1/B8lqxzJ7vdzna0sstRl7yxL1b/0M15zv/dubIui41Dc9pjlqPosRXr3FRwZKH+seXgyBnLLmePIQm9cu2mOHBXWt+CmxRYBd/rj8/l0y8VHAmNJXODI+vbOtqKtOFn1uX5XqsRkUs03xJqvOya64g49OL7SanbDbQ/WGEvD8pZruT+/+yET5R1vuPdZM+swxLLtMwJPtQ27RqpvSnhYXKDdG2D8eDZQfoOzSba59iF8XewrIm2vUbMW3Ba5Y7+ltP2c5aMO+0SLd/G+4NIA/XPseGY1qU2cMk/Vp50X53uj5JTjrrkjX2ROSXaTqVzZV3K7TxgL9ntMZ0LwsvHc20253XKWJ5LvVaT68PU457giIjrw80YQ1J6FdlNbJXVgsGR5LVgDdIbZ7fu05d8lvm64aQOoTzj9V7b1tHWvL4eP9sIjvxdvv7yHAW7rBh583/XyFgzG7JecJdcmQZrLoXse9tJ8iz5um66ZS2NcpdSihRPtm4ZPU/5bAfdrJ75ZNOOVtrOVmqDH/+N5KRtEnWZtFFFopFbpzzT3x4vdTzsDdzcgSBuF8aGS9fNYN2y+s7xO37NBEdOBSrvb0U30fnLob22GCvfpvvDmVXrn2nDXq1Dx/03INMl7r6yxuo8dcrsG6CcVyXqkTv22XqYY4wdLJ7YbeFcWZMyO08739P2SIxPRhvEN2Q1bSVko27+uWOhTPK9SRex09k+TD1u+qbmxCFtl5l9d9pmMb0K+lFQO6f83mNL+JWwJuZY9Zw+fYE9BsfFucGR3Hqv72/p1dZX1m372c7KkTZTbGkxbJ8S/W9LuWAu9Le2QR89aNa6qbo3ssR7SzSlL8AdqLVlBeMi2uqE4Ag0T7b+k3fmYA70t7ZBHz1o1rqlug9951lODffQkr4A96DVljWMi2irE4Ij0Dxp/S/LX9db/r4l6G9tgz560Kz1unU3XqlY8dWiLaPZtmFb6LFlfeMi2uqE4Ag0D/rXhfZuG/TRg2atNdddA+gLWwFb3i5oqxOCI9A86F8X2rtt0EcPmrXWXHcNoC9sBWx5u6CtTrqXlxchkUgkEolEIpFIJBKJRNKaupeXF+n++I+m0+vr69pBJFgR9K8L7d026KMHzVprrrsG0Be2Ara8XdBWJwRHoHnQvy60d9ugjx40a6257hpAX9gK2PJ2QVudEByB5kH/utDebYM+etCstea6awB9YStgy9sFbXVCcASaB/3rQnu3DfroQbPWmuuuAfSFrYAtbxe01QnBEWge9K8L7d026KMHzVprrrsG0Be2Ara8XdBWJw0ERz7I8V+3Ag1vMoIjQy9dt5fjKBnHRznuO+m6U+qH68nSd5fj5nfM83sZvPmYxy/XPX+2P8ooIjIeZd910+PB60bq5f3Ml495zPksWJ72uelvaLA/yuipbz84Xza16TrZm43rfGZ91/rsovf0entbQO/n43HvaHJO/SDl9payw4D9FMBksCYRfc+gT8Mk56DMvnzG1todX+7v607hpbfmi6XzL8Nr57HxHJ4KW9+Qn5bTd3xzd47thvKO+GguQR8i3bejZU3WYUa7pMqc5SMG2ib03dC1Hn28MszJj+XTh5/k2x9fReRV3r19f/7b5FXevf1Jxs+pnMzzbn//8uN7+e7D7/5voO1qrKn7+sGRN7/J8Xj5+5OIfJI+GBw5D/x9f3PiosdFZDje/j/014lk6G+O1XjcXwfz8bg/37Tm/R10Isej7D2TonldGfrzdSPlv9Sv31vXCZXfuZgTrIlM0g0zvUEwg0F7r763/0/t5NpuoxsoOX/XbavxKMfBc72Lo3CbqQP6ORjXKrU3/98p+ymDyWA9guOMAfq0SLgPFs8pBuGxLzLuzyZz/KpE+qGIPZ7Haatu4Ogb8NOCfcR7ftk8GMrb76MF8gj4EOm+PcOXzSh7qB1zypzjIwbbJvDdYPs8+HhtmJMfyOdf5bvvf5VPInK5sf3u+/fy7qN50n03ySK/y/i9//touxIr675+cMRK/5RB/nMLlgRfqwk5OikH6PL5IP3kScFejuNpYrIj6bdJd3rcmSxMvJPFKMe9E223Jt5A+Yde9sejExTwld/9mlE2DcER6/+OZheC7WC0adAh8rSzlV+OA34KqJzKVWpvYTsMlm8GTAZrkdL3BPq0jNsH5/blE7HgyPI3/G0FEHwrC/LHc5e26gaxcSzlj4XOD/3fR6xfxny0GBcfIrfcsbLG6jC3XWJlTpXzct1A22T1Q9dvrXX88TAnP45PH34ynu6fb2w/mjfOxvHZN8ki8vFnz8oEtF2LtXVvKzhy/E3Gf/0m+9RrNXODI9fB3B1EL5NNaJJNHD/202V91jJD3+oG8yY5Vv5RjvvL+aHgiM9xdPIKlecJKFo5kpysnQn+ctR6unPSZhr0Culzafu0MzK9zgx7CzqBBEeemzw90adlcvvoHK0T37HGeCdga8xR1rhmfGcagHf+Ls7jPqy6Z43nsbZ2X2eEtQmOY5afljG/5T5ksojkHfXRwtzm9pJ5ucCXvfo3M9ol8MBnugo64SOG2ibju6HVcY8+XgPm5EfhPtkPvRIRufkNfuac99m98T5/G21XYH3dGwqOnPYeydpz5O5ou7Mc9/ze4ik44nsSHzu+l/1xMPLxLC087o3jsXdRAxPiZMINld/5XuCJh12e9okHRwJOb/CJz9QO/A7z7TN7n5pUcCSyB8rkFaw59hZbKUJw5LnJWxGGPi3j65Nz+vKJ/NdqpoHi0/zgvPpnzVH2Dc5pXggFR+bkcR+T4EhyPI+Nh6wcaQ3/OObqmeojGQ+GvMTyztwvRJxzrYceuSs65wZHCtvF8gdjfs/520EfMd02QX/XdoYefLwuzMmP4lXevf1ZfrH+n7rhnXmTPLnW+SjarsD6ujcTHOn/JiJ/+6f3syWCI0PvuXm+3lQfz0+f7n2SH1j6ez3fM2FFJ7nIUzFv+e36ht/Ffi5HMWvliGefkJKVI8H3Vc/tHF4ZEnty6Z7n28CVlSNwgZUjz8+jV46YwVd3vPNt+By5TvSJeyywkJvHfSy3cmTZcsEy+MYx209L95GJXxc4b7qqKpR3xEfzrsyyCp/I29cKcx70zW0XX1ahfToyAy4lr/OEzn/08QowJz+K2E2yGK9ELHGT7N9/Am3XYH3dmwiO7P/6n2BgZIngSHK5Xex90+jxWDDDVy434u+e75v0HIc3tHyyaO+J53IUc1+rGY97I/gwZ8+R1HLQkNOV3nPEv3liqb2FjqfrUAKTwVqk9D2BPi2TmBOy+/KJ+Gs1BnP2Y3im4EjWeE5w5Jlwx7GpnxbvI2G/LkfrmE8X89FimAGWdN+OlzX1oGVOu9x7/dy2Ka3To48/HubkR5G4SZbfZfz+vbz7yMqRbbG+7usHR958EvHsM7JYcCSx27j7RL/0lwWsCH0gcj30nfXTs/M21Ax9Nl2RkPoVg1t5noN5G7JKYGVOYEWNaSfmju9W+/qDV/HXbmLHy+0tvgs+wZFnh1+reXamffBRv1YzvW7OPknu+Jn7Ws2cPO7D/2s1sfHc92Sb4Eir2L9Wk94Tw/5Vlphfl6e1P++UjxbBKFNO346XNe7LFrdL4XHbRzQf7qXbJuhfLlS24uMVYE5+FOG9J658/lW+e/tevrV+gcT4VZOPPxufsefIc7C+7isHR077jLi4+45Mfsp38nvqBceve4vc/m87lMZ3rIE247j3nVXnfGf582Tvi+BvzE8d0lj5g3Xy5t02Xv29G5N5AkND72gv07wmy2SdFTvORq3hVTx+R2fopzZ4y/cOe/O9Q7yAxkwGaxLS/Qb6tEisD5b28Rv5wRGZvlqTszmkMT4mN2QtzuM+vHYeHM89nzs/h3odh9mQtQmifp3PN4rNd10n/VA6Dwb6n9dHS3x/4kOk+napLyvOzX9Ju5jfDZU55iO6ry8n/NdgeQLXWvx4fZiTH4f3V0s+T8/51n3t4u37U/rx57wVBPxaTVOsrfv6K0cyEsapG/SvC+3dNuijh6fTesGfjH+6ukMR6AtbAVt+IIEn+8vi33dCBG1XY2XdCY5A86B/XWjvtkEfPTyb1ku+svlsdYcy0Be2Arb8WD59+Mn7dH8pfvnxfTB/tF2PNXUnOALNg/51ob3bBn300L7Wj1va3n7d4R7QF7YCtrxd0FYnBEegedC/LrR326CPHjRrrbnuGkBf2ArY8nZBW50QHIHmQf+60N5tgz560Ky15rprAH1hK2DL2wVtddK9vLzI6+sriUQikUgkEolEIpFIJJLK1K0dnQEAAAAAAAAAWBOCIwAAAAAAAACgGoIjAAAAAAAAAKAagiMAAAAAAAAAoBqCIwAAAAAAAACgGoIjAAAAAAAAAKAagiMAAAAAAAAAoBqCIwAAAAAAAACgGoIjAAAAAAAAAKAagiMAAAAAAAAAoBqCIwAAAAAAAACgGoIjAAAAAAAAAKAagiMAAAAAAAAAoBqCIwAAAAAAAACgGoIjAAAAAAAAAKAagiMAAAAAAAAAoBqCIwAAAAAAAACgGoIjAAAAAAAAAKAagiMAAAAAAAAAoBqCIwAAAAAAAACgGoIjAAAAAAAAAKAagiMAAAAAAAAAoBqCIwAAAAAAAACgGoIjAAAAAAAAAKAagiMAAAAAAAAAoBqCIwAAAAAAAACgGoIjAAAAAAAAAKAagiMAAAAAAAAAoBqCIwAAAAAAAACgGoIjAAAAAAAAAKAagiMAAAAAAAAAoBqCIwAAAAAAAACgGoIjAAAAAAAAAKCa/wHDjDtoxqf9lAAAAABJRU5ErkJggg==;" vertex="1" parent="WIyWlLk6GJQsqaUBKTNV-1">
          <mxGeometry x="-827" y="780" width="1077.5" height="73.8" as="geometry" />
        </mxCell>
        <mxCell id="ZJ-Ndo8Y_zPckxjQXqnF-17" value="" style="rounded=0;html=1;jettySize=auto;orthogonalLoop=1;fontSize=11;endArrow=block;endFill=0;endSize=8;strokeWidth=1;shadow=0;labelBackgroundColor=none;edgeStyle=orthogonalEdgeStyle;" edge="1" parent="WIyWlLk6GJQsqaUBKTNV-1" source="ZJ-Ndo8Y_zPckxjQXqnF-18" target="ZJ-Ndo8Y_zPckxjQXqnF-21">
          <mxGeometry relative="1" as="geometry" />
        </mxCell>
        <mxCell id="ZJ-Ndo8Y_zPckxjQXqnF-18" value="Upload Change Portfolio From CSD" style="rounded=1;whiteSpace=wrap;html=1;fontSize=12;glass=0;strokeWidth=1;shadow=0;" vertex="1" parent="WIyWlLk6GJQsqaUBKTNV-1">
          <mxGeometry x="-760" y="40" width="120" height="40" as="geometry" />
        </mxCell>
        <mxCell id="ZJ-Ndo8Y_zPckxjQXqnF-19" value="Yes" style="rounded=0;html=1;jettySize=auto;orthogonalLoop=1;fontSize=11;endArrow=block;endFill=0;endSize=8;strokeWidth=1;shadow=0;labelBackgroundColor=none;edgeStyle=orthogonalEdgeStyle;" edge="1" parent="WIyWlLk6GJQsqaUBKTNV-1" source="ZJ-Ndo8Y_zPckxjQXqnF-21">
          <mxGeometry y="20" relative="1" as="geometry">
            <mxPoint as="offset" />
            <mxPoint x="-700" y="260" as="targetPoint" />
          </mxGeometry>
        </mxCell>
        <mxCell id="ZJ-Ndo8Y_zPckxjQXqnF-20" value="No" style="edgeStyle=orthogonalEdgeStyle;rounded=0;html=1;jettySize=auto;orthogonalLoop=1;fontSize=11;endArrow=block;endFill=0;endSize=8;strokeWidth=1;shadow=0;labelBackgroundColor=none;" edge="1" parent="WIyWlLk6GJQsqaUBKTNV-1" source="ZJ-Ndo8Y_zPckxjQXqnF-21" target="ZJ-Ndo8Y_zPckxjQXqnF-22">
          <mxGeometry y="10" relative="1" as="geometry">
            <mxPoint as="offset" />
          </mxGeometry>
        </mxCell>
        <mxCell id="ZJ-Ndo8Y_zPckxjQXqnF-21" value="IS Change Broker" style="rhombus;whiteSpace=wrap;html=1;shadow=0;fontFamily=Helvetica;fontSize=12;align=center;strokeWidth=1;spacing=6;spacingTop=-4;" vertex="1" parent="WIyWlLk6GJQsqaUBKTNV-1">
          <mxGeometry x="-750" y="130" width="100" height="80" as="geometry" />
        </mxCell>
        <mxCell id="ZJ-Ndo8Y_zPckxjQXqnF-22" value="NoAction" style="rounded=1;whiteSpace=wrap;html=1;fontSize=12;glass=0;strokeWidth=1;shadow=0;" vertex="1" parent="WIyWlLk6GJQsqaUBKTNV-1">
          <mxGeometry x="-600" y="150" width="120" height="40" as="geometry" />
        </mxCell>
        <mxCell id="ZJ-Ndo8Y_zPckxjQXqnF-23" value="Insert Changed Customer Portfolio In Table" style="rounded=1;whiteSpace=wrap;html=1;fontSize=12;glass=0;strokeWidth=1;shadow=0;" vertex="1" parent="WIyWlLk6GJQsqaUBKTNV-1">
          <mxGeometry x="-760" y="260" width="120" height="90" as="geometry" />
        </mxCell>
        <mxCell id="ZJ-Ndo8Y_zPckxjQXqnF-24" value="User Login" style="rounded=1;whiteSpace=wrap;html=1;fontSize=12;glass=0;strokeWidth=1;shadow=0;" vertex="1" parent="WIyWlLk6GJQsqaUBKTNV-1">
          <mxGeometry x="-370" y="10" width="120" height="40" as="geometry" />
        </mxCell>
        <mxCell id="ZJ-Ndo8Y_zPckxjQXqnF-25" value="" style="rounded=0;html=1;jettySize=auto;orthogonalLoop=1;fontSize=11;endArrow=block;endFill=0;endSize=8;strokeWidth=1;shadow=0;labelBackgroundColor=none;edgeStyle=orthogonalEdgeStyle;exitX=0.5;exitY=1;exitDx=0;exitDy=0;" edge="1" parent="WIyWlLk6GJQsqaUBKTNV-1" source="ZJ-Ndo8Y_zPckxjQXqnF-24">
          <mxGeometry relative="1" as="geometry">
            <mxPoint x="-320" y="50" as="sourcePoint" />
            <mxPoint x="-320" y="100" as="targetPoint" />
            <Array as="points">
              <mxPoint x="-320" y="50" />
            </Array>
          </mxGeometry>
        </mxCell>
        <mxCell id="ZJ-Ndo8Y_zPckxjQXqnF-26" value="" style="edgeStyle=orthogonalEdgeStyle;rounded=0;orthogonalLoop=1;jettySize=auto;html=1;" edge="1" parent="WIyWlLk6GJQsqaUBKTNV-1" source="ZJ-Ndo8Y_zPckxjQXqnF-27" target="ZJ-Ndo8Y_zPckxjQXqnF-30">
          <mxGeometry relative="1" as="geometry" />
        </mxCell>
        <mxCell id="ZJ-Ndo8Y_zPckxjQXqnF-27" value="Ask For Unmanaged ChangeBroker Operations" style="rounded=1;whiteSpace=wrap;html=1;fontSize=12;glass=0;strokeWidth=1;shadow=0;" vertex="1" parent="WIyWlLk6GJQsqaUBKTNV-1">
          <mxGeometry x="-370" y="100" width="120" height="70" as="geometry" />
        </mxCell>
        <mxCell id="ZJ-Ndo8Y_zPckxjQXqnF-28" value="" style="edgeStyle=orthogonalEdgeStyle;rounded=0;orthogonalLoop=1;jettySize=auto;html=1;" edge="1" parent="WIyWlLk6GJQsqaUBKTNV-1" source="ZJ-Ndo8Y_zPckxjQXqnF-30" target="ZJ-Ndo8Y_zPckxjQXqnF-31">
          <mxGeometry relative="1" as="geometry" />
        </mxCell>
        <mxCell id="ZJ-Ndo8Y_zPckxjQXqnF-29" value="" style="edgeStyle=orthogonalEdgeStyle;rounded=0;orthogonalLoop=1;jettySize=auto;html=1;entryX=0.5;entryY=0;entryDx=0;entryDy=0;" edge="1" parent="WIyWlLk6GJQsqaUBKTNV-1" source="ZJ-Ndo8Y_zPckxjQXqnF-30" target="ZJ-Ndo8Y_zPckxjQXqnF-39">
          <mxGeometry relative="1" as="geometry">
            <mxPoint x="-310" y="437.5" as="targetPoint" />
          </mxGeometry>
        </mxCell>
        <mxCell id="ZJ-Ndo8Y_zPckxjQXqnF-30" value="has unmanaged records" style="rhombus;whiteSpace=wrap;html=1;rounded=1;shadow=0;strokeWidth=1;glass=0;" vertex="1" parent="WIyWlLk6GJQsqaUBKTNV-1">
          <mxGeometry x="-390" y="245" width="160" height="95" as="geometry" />
        </mxCell>
        <mxCell id="ZJ-Ndo8Y_zPckxjQXqnF-31" value="No Action" style="whiteSpace=wrap;html=1;rounded=1;shadow=0;strokeWidth=1;glass=0;" vertex="1" parent="WIyWlLk6GJQsqaUBKTNV-1">
          <mxGeometry x="-140" y="262.5" width="120" height="60" as="geometry" />
        </mxCell>
        <mxCell id="ZJ-Ndo8Y_zPckxjQXqnF-32" value="No" style="text;html=1;align=center;verticalAlign=middle;resizable=0;points=[];autosize=1;strokeColor=none;" vertex="1" parent="WIyWlLk6GJQsqaUBKTNV-1">
          <mxGeometry x="-210" y="270" width="30" height="20" as="geometry" />
        </mxCell>
        <mxCell id="ZJ-Ndo8Y_zPckxjQXqnF-33" value="" style="edgeStyle=orthogonalEdgeStyle;rounded=0;orthogonalLoop=1;jettySize=auto;html=1;exitX=0.5;exitY=1;exitDx=0;exitDy=0;" edge="1" parent="WIyWlLk6GJQsqaUBKTNV-1" source="ZJ-Ndo8Y_zPckxjQXqnF-39" target="ZJ-Ndo8Y_zPckxjQXqnF-36">
          <mxGeometry relative="1" as="geometry">
            <mxPoint x="-310" y="497.5" as="sourcePoint" />
          </mxGeometry>
        </mxCell>
        <mxCell id="ZJ-Ndo8Y_zPckxjQXqnF-35" value="" style="edgeStyle=orthogonalEdgeStyle;rounded=0;orthogonalLoop=1;jettySize=auto;html=1;" edge="1" parent="WIyWlLk6GJQsqaUBKTNV-1" source="ZJ-Ndo8Y_zPckxjQXqnF-36" target="ZJ-Ndo8Y_zPckxjQXqnF-38">
          <mxGeometry relative="1" as="geometry" />
        </mxCell>
        <mxCell id="ZJ-Ndo8Y_zPckxjQXqnF-36" value="&lt;div&gt;Call Real Time Portfolio &lt;br&gt;&lt;/div&gt;&lt;div&gt;Services&lt;/div&gt;" style="whiteSpace=wrap;html=1;rounded=1;shadow=0;strokeWidth=1;glass=0;" vertex="1" parent="WIyWlLk6GJQsqaUBKTNV-1">
          <mxGeometry x="-370" y="540" width="120" height="60" as="geometry" />
        </mxCell>
        <mxCell id="ZJ-Ndo8Y_zPckxjQXqnF-37" value="Yes" style="text;html=1;align=center;verticalAlign=middle;resizable=0;points=[];autosize=1;strokeColor=none;" vertex="1" parent="WIyWlLk6GJQsqaUBKTNV-1">
          <mxGeometry x="-310" y="370" width="30" height="20" as="geometry" />
        </mxCell>
        <mxCell id="ZJ-Ndo8Y_zPckxjQXqnF-38" value="Remove From Unmanaged Records" style="whiteSpace=wrap;html=1;rounded=1;shadow=0;strokeWidth=1;glass=0;" vertex="1" parent="WIyWlLk6GJQsqaUBKTNV-1">
          <mxGeometry x="-370" y="680" width="120" height="60" as="geometry" />
        </mxCell>
        <mxCell id="ZJ-Ndo8Y_zPckxjQXqnF-39" value="Request for Accounting Ooeration " style="rhombus;whiteSpace=wrap;html=1;rounded=1;shadow=0;strokeWidth=1;glass=0;" vertex="1" parent="WIyWlLk6GJQsqaUBKTNV-1">
          <mxGeometry x="-390" y="410" width="160" height="95" as="geometry" />
        </mxCell>
        <mxCell id="ZJ-Ndo8Y_zPckxjQXqnF-40" value="Yes" style="text;html=1;align=center;verticalAlign=middle;resizable=0;points=[];autosize=1;strokeColor=none;" vertex="1" parent="WIyWlLk6GJQsqaUBKTNV-1">
          <mxGeometry x="-310" y="505" width="30" height="20" as="geometry" />
        </mxCell>
        <mxCell id="ZJ-Ndo8Y_zPckxjQXqnF-41" value="No Action" style="whiteSpace=wrap;html=1;rounded=1;shadow=0;strokeWidth=1;glass=0;" vertex="1" parent="WIyWlLk6GJQsqaUBKTNV-1">
          <mxGeometry x="-140" y="427.5" width="120" height="60" as="geometry" />
        </mxCell>
        <mxCell id="ZJ-Ndo8Y_zPckxjQXqnF-42" value="No" style="text;html=1;align=center;verticalAlign=middle;resizable=0;points=[];autosize=1;strokeColor=none;" vertex="1" parent="WIyWlLk6GJQsqaUBKTNV-1">
          <mxGeometry x="-230" y="435" width="30" height="20" as="geometry" />
        </mxCell>
        <mxCell id="ZJ-Ndo8Y_zPckxjQXqnF-44" value="" style="edgeStyle=orthogonalEdgeStyle;rounded=0;orthogonalLoop=1;jettySize=auto;html=1;" edge="1" parent="WIyWlLk6GJQsqaUBKTNV-1">
          <mxGeometry relative="1" as="geometry">
            <mxPoint x="-230" y="457" as="sourcePoint" />
            <mxPoint x="-140" y="457" as="targetPoint" />
          </mxGeometry>
        </mxCell>
      </root>
    </mxGraphModel>
  </diagram>
</mxfile>
